# WaveFront *.obj file (generated by Cinema 4D)

mtllib ./бочька.mtl

v -0.000000 1.837496 -0.000000
v -0.000000 71.662504 -0.000000
v 25.000000 1.750000 -0.000000
v 25.000000 71.750000 -0.000000
v 20.225425 1.750000 -14.694631
v 20.225425 71.750000 -14.694631
v 7.725425 1.750000 -23.776413
v 7.725425 71.750000 -23.776413
v -7.725425 1.750000 -23.776413
v -7.725425 71.750000 -23.776413
v -20.225425 1.750000 -14.694631
v -20.225425 71.750000 -14.694631
v -25.000000 1.750000 -0.000000
v -25.000000 71.750000 -0.000000
v -20.225425 1.750000 14.694631
v -20.225425 71.750000 14.694631
v -7.725425 1.750000 23.776413
v -7.725425 71.750000 23.776413
v 7.725425 1.750000 23.776413
v 7.725425 71.750000 23.776413
v 20.225425 1.750000 14.694631
v 20.225425 71.750000 14.694631
v 26.250000 1.749999 -0.000000
v 21.236696 1.749999 -15.429363
v 8.111696 1.749999 -24.965234
v -8.111696 1.749999 -24.965234
v -21.236696 1.749999 -15.429363
v -26.250000 1.749999 -0.000000
v -21.236696 1.749999 15.429363
v -8.111696 1.749999 24.965234
v 8.111696 1.749999 24.965234
v 21.236696 1.749999 15.429363
v 26.250000 71.750001 -0.000000
v 21.236696 71.750001 -15.429363
v 8.111696 71.750001 -24.965234
v -8.111696 71.750001 -24.965234
v -21.236696 71.750001 -15.429363
v -26.250000 71.750001 -0.000000
v -21.236696 71.750001 15.429363
v -8.111696 71.750001 24.965234
v 8.111696 71.750001 24.965234
v 21.236696 71.750001 15.429363
v 26.250000 -0.000002 -0.000000
v 21.236696 -0.000002 -15.429363
v 8.111696 -0.000002 -24.965234
v -8.111696 -0.000002 -24.965234
v -21.236696 -0.000002 -15.429363
v -26.250000 -0.000002 -0.000000
v -21.236696 -0.000002 15.429363
v -8.111696 -0.000002 24.965234
v 8.111696 -0.000002 24.965234
v 21.236696 -0.000002 15.429363
v 26.250000 73.500002 -0.000000
v 21.236696 73.500002 -15.429363
v 8.111696 73.500002 -24.965234
v -8.111696 73.500002 -24.965234
v -21.236696 73.500002 -15.429363
v -26.250000 73.500002 -0.000000
v -21.236696 73.500002 15.429363
v -8.111696 73.500002 24.965234
v 8.111696 73.500002 24.965234
v 21.236696 73.500002 15.429363
v 23.625000 -0.000003 -0.000000
v 19.113026 -0.000003 -13.886427
v 7.300526 -0.000003 -22.468710
v -7.300526 -0.000003 -22.468710
v -19.113026 -0.000003 -13.886427
v -23.625000 -0.000003 -0.000000
v -19.113026 -0.000003 13.886427
v -7.300526 -0.000003 22.468710
v 7.300526 -0.000003 22.468710
v 19.113026 -0.000003 13.886427
v 23.625000 73.500003 -0.000000
v 19.113026 73.500003 -13.886427
v 7.300526 73.500003 -22.468710
v -7.300526 73.500003 -22.468710
v -19.113026 73.500003 -13.886427
v -23.625000 73.500003 -0.000000
v -19.113026 73.500003 13.886427
v -7.300526 73.500003 22.468710
v 7.300526 73.500003 22.468710
v 19.113026 73.500003 13.886427
v 23.625000 1.837496 -0.000000
v 19.113026 1.837496 -13.886427
v 7.300526 1.837496 -22.468710
v -7.300526 1.837496 -22.468710
v -19.113026 1.837496 -13.886427
v -23.625000 1.837496 -0.000000
v -19.113026 1.837496 13.886427
v -7.300526 1.837496 22.468710
v 7.300526 1.837496 22.468710
v 19.113026 1.837496 13.886427
v 23.625000 71.662504 -0.000000
v 19.113026 71.662504 -13.886427
v 7.300526 71.662504 -22.468710
v -7.300526 71.662504 -22.468710
v -19.113026 71.662504 -13.886427
v -23.625000 71.662504 -0.000000
v -19.113026 71.662504 13.886427
v -7.300526 71.662504 22.468710
v 7.300526 71.662504 22.468710
v 19.113026 71.662504 13.886427
v 25.000001 35.875000 -0.000000
v 25.000001 37.625000 -0.000000
v 20.225426 35.875000 -14.694632
v 20.225426 37.625000 -14.694632
v 7.725425 35.875000 -23.776414
v 7.725425 37.625000 -23.776414
v -7.725425 35.875000 -23.776414
v -7.725425 37.625000 -23.776414
v -20.225426 35.875000 -14.694632
v -20.225426 37.625000 -14.694632
v -25.000001 35.875000 -0.000000
v -25.000001 37.625000 -0.000000
v -20.225426 35.875000 14.694632
v -20.225426 37.625000 14.694632
v -7.725425 35.875000 23.776414
v -7.725425 37.625000 23.776414
v 7.725425 35.875000 23.776414
v 7.725425 37.625000 23.776414
v 20.225426 35.875000 14.694632
v 20.225426 37.625000 14.694632
v 26.250002 35.875000 -0.000000
v 26.250002 37.625000 -0.000000
v 21.236698 35.875000 -15.429364
v 21.236698 37.625000 -15.429364
v 8.111697 35.875000 -24.965236
v 8.111697 37.625000 -24.965236
v -8.111697 35.875000 -24.965236
v -8.111697 37.625000 -24.965236
v -21.236698 35.875000 -15.429364
v -21.236698 37.625000 -15.429364
v -26.250002 35.875000 -0.000000
v -26.250002 37.625000 -0.000000
v -21.236698 35.875000 15.429364
v -21.236698 37.625000 15.429364
v -8.111697 35.875000 24.965236
v -8.111697 37.625000 24.965236
v 8.111697 35.875000 24.965236
v 8.111697 37.625000 24.965236
v 21.236698 35.875000 15.429364
v 21.236698 37.625000 15.429364
# 142 vertices

vn 0.000000 -1.000000 0.000000
vn 1.000000 -0.000000 0.000000
vn 0.809017 -0.000000 -0.587785
vn 0.000000 1.000000 0.000000
vn 0.309017 0.000000 -0.951056
vn -0.309017 0.000000 -0.951056
vn -0.809017 0.000000 -0.587785
vn -1.000000 0.000000 0.000000
vn -0.809017 0.000000 0.587785
vn -0.309017 0.000000 0.951056
vn 0.309017 0.000000 0.951056
vn 0.809017 0.000000 0.587785
vn 0.000001 1.000000 0.000000
vn 0.000001 1.000000 -0.000000
vn 0.000000 1.000000 -0.000001
vn -0.000000 1.000000 -0.000001
vn -0.000001 1.000000 -0.000000
vn -0.000001 1.000000 0.000000
vn -0.000001 1.000000 0.000000
vn -0.000000 1.000000 0.000001
vn 0.000000 1.000000 0.000001
vn 0.000001 1.000000 0.000000
vn 1.000000 -0.000000 0.000000
vn 0.809017 -0.000000 -0.587785
vn 0.309017 0.000000 -0.951056
vn -0.309017 0.000000 -0.951056
vn -0.809017 0.000000 -0.587785
vn -1.000000 0.000000 0.000000
vn -0.809017 0.000000 0.587785
vn -0.309017 0.000000 0.951056
vn 0.309017 0.000000 0.951056
vn 0.809017 0.000000 0.587785
vn 0.809017 0.000000 -0.587785
vn 1.000000 0.000000 0.000000
vn -0.809017 -0.000000 -0.587785
vn -1.000000 -0.000000 0.000000
vn -0.809017 0.000000 0.587785
vn 0.809017 0.000000 0.587785
vn 0.000000 -1.000000 0.000000
vn 0.000000 -1.000000 -0.000000
vn 0.000000 -1.000000 -0.000000
vn -0.000000 -1.000000 -0.000000
vn -0.000000 -1.000000 -0.000000
vn -0.000000 -1.000000 0.000000
vn -0.000000 -1.000000 0.000000
vn -0.000000 -1.000000 0.000000
vn 0.000000 -1.000000 0.000000
vn 0.000000 -1.000000 0.000000
vn -1.000000 -0.000000 0.000000
vn -0.809017 -0.000000 0.587785
vn -0.309017 0.000000 0.951057
vn 0.309017 0.000000 0.951057
vn 1.000000 0.000000 0.000000
vn 0.809017 0.000000 -0.587785
vn 0.309017 0.000000 -0.951057
vn -0.309017 0.000000 -0.951057
vn -0.809017 0.000000 0.587785
vn -1.000000 0.000000 0.000000
vn -0.309017 0.000000 0.951057
vn 0.309017 0.000000 0.951057
vn 0.809017 -0.000000 0.587785
vn 1.000000 -0.000000 0.000000
vn 0.809017 0.000000 -0.587785
vn 0.309017 0.000000 -0.951057
vn -0.309017 0.000000 -0.951057
vn -0.809017 0.000000 -0.587785
vn 1.000000 0.000000 0.000000
vn 0.809017 0.000000 -0.587785
vn 0.809017 -0.000000 -0.587785
vn 1.000000 -0.000000 0.000000
vn 0.309017 0.000000 -0.951056
vn 0.309017 -0.000000 -0.951056
vn -0.309017 0.000000 -0.951056
vn -0.309017 -0.000000 -0.951056
vn -0.809017 0.000000 -0.587785
vn -0.809017 -0.000000 -0.587785
vn -1.000000 0.000000 0.000000
vn -1.000000 -0.000000 0.000000
vn -0.809017 0.000000 0.587785
vn -0.809017 -0.000000 0.587785
vn -0.309017 0.000000 0.951056
vn -0.309017 -0.000000 0.951056
vn 0.309017 0.000000 0.951056
vn 0.309017 -0.000000 0.951056
vn 0.809017 0.000000 0.587785
vn 0.809017 -0.000000 0.587785
# 86 normals

vt 0.659783 0.883732 0.000000
vt 0.545962 0.883732 0.000000
vt 0.567700 0.950634 0.000000
vt 0.594010 0.905577 0.000000
vt 0.008018 0.033329 0.000000
vt 0.008018 0.041760 0.000000
vt 0.032171 0.041760 0.000000
vt 0.032171 0.033329 0.000000
vt 0.773604 0.651195 0.000000
vt 0.659783 0.651195 0.000000
vt 0.751866 0.718097 0.000000
vt 0.731944 0.671915 0.000000
vt 0.624610 0.991982 0.000000
vt 0.095405 0.041760 0.000000
vt 0.095405 0.033329 0.000000
vt 0.694956 0.759445 0.000000
vt 0.694956 0.991982 0.000000
vt 0.173567 0.041760 0.000000
vt 0.173567 0.033329 0.000000
vt 0.624610 0.759445 0.000000
vt 0.751866 0.950634 0.000000
vt 0.236801 0.041760 0.000000
vt 0.236801 0.033329 0.000000
vt 0.567700 0.718097 0.000000
vt 0.773604 0.883732 0.000000
vt 0.260954 0.041760 0.000000
vt 0.260954 0.033329 0.000000
vt 0.545962 0.651195 0.000000
vt 0.751866 0.816829 0.000000
vt 0.774809 0.066228 0.000000
vt 0.774809 0.057796 0.000000
vt 0.750655 0.057796 0.000000
vt 0.750655 0.066228 0.000000
vt 0.567700 0.584292 0.000000
vt 0.694956 0.775481 0.000000
vt 0.687422 0.057796 0.000000
vt 0.687422 0.066228 0.000000
vt 0.624610 0.542945 0.000000
vt 0.624610 0.775481 0.000000
vt 0.609260 0.057796 0.000000
vt 0.609260 0.066228 0.000000
vt 0.694956 0.542945 0.000000
vt 0.567700 0.816829 0.000000
vt 0.546026 0.057796 0.000000
vt 0.546026 0.066228 0.000000
vt 0.751866 0.584292 0.000000
vt 0.521873 0.057796 0.000000
vt 0.521873 0.066228 0.000000
vt 0.529926 0.871704 0.000000
vt 0.523903 0.871704 0.000000
vt 0.500900 0.942500 0.000000
vt 0.505773 0.946040 0.000000
vt 0.440678 0.986254 0.000000
vt 0.442539 0.991982 0.000000
vt 0.366238 0.986254 0.000000
vt 0.364377 0.991982 0.000000
vt 0.306015 0.942500 0.000000
vt 0.301143 0.946040 0.000000
vt 0.283012 0.871704 0.000000
vt 0.276990 0.871704 0.000000
vt 0.306015 0.800908 0.000000
vt 0.301143 0.797368 0.000000
vt 0.366238 0.757153 0.000000
vt 0.364377 0.751426 0.000000
vt 0.440678 0.757153 0.000000
vt 0.442539 0.751426 0.000000
vt 0.500900 0.800908 0.000000
vt 0.505773 0.797368 0.000000
vt 0.301143 0.689447 0.000000
vt 0.306015 0.685907 0.000000
vt 0.283012 0.615111 0.000000
vt 0.276990 0.615111 0.000000
vt 0.364377 0.735389 0.000000
vt 0.366238 0.729662 0.000000
vt 0.442539 0.735389 0.000000
vt 0.440678 0.729662 0.000000
vt 0.505773 0.689447 0.000000
vt 0.500900 0.685907 0.000000
vt 0.529926 0.615111 0.000000
vt 0.523903 0.615111 0.000000
vt 0.505773 0.540775 0.000000
vt 0.500900 0.544315 0.000000
vt 0.442539 0.494833 0.000000
vt 0.440678 0.500561 0.000000
vt 0.364377 0.494833 0.000000
vt 0.366238 0.500561 0.000000
vt 0.301143 0.540775 0.000000
vt 0.306015 0.544315 0.000000
vt 0.533918 0.108653 0.000000
vt 0.533918 0.117084 0.000000
vt 0.558071 0.117084 0.000000
vt 0.558071 0.108653 0.000000
vt 0.621305 0.117084 0.000000
vt 0.621305 0.108653 0.000000
vt 0.699466 0.117084 0.000000
vt 0.699466 0.108653 0.000000
vt 0.762700 0.117084 0.000000
vt 0.762700 0.108653 0.000000
vt 0.786853 0.117084 0.000000
vt 0.786853 0.108653 0.000000
vt 0.786853 0.092616 0.000000
vt 0.786853 0.084185 0.000000
vt 0.762700 0.084185 0.000000
vt 0.762700 0.092616 0.000000
vt 0.699466 0.084185 0.000000
vt 0.699466 0.092616 0.000000
vt 0.621305 0.084185 0.000000
vt 0.621305 0.092616 0.000000
vt 0.558071 0.084185 0.000000
vt 0.558071 0.092616 0.000000
vt 0.533918 0.084185 0.000000
vt 0.533918 0.092616 0.000000
vt 0.558071 0.166019 0.000000
vt 0.558071 0.157588 0.000000
vt 0.533918 0.157588 0.000000
vt 0.533918 0.166019 0.000000
vt 0.621305 0.166019 0.000000
vt 0.621305 0.157588 0.000000
vt 0.699466 0.166019 0.000000
vt 0.699466 0.157588 0.000000
vt 0.762700 0.166019 0.000000
vt 0.762700 0.157588 0.000000
vt 0.786853 0.166019 0.000000
vt 0.786853 0.157588 0.000000
vt 0.762700 0.133120 0.000000
vt 0.762700 0.141552 0.000000
vt 0.786853 0.141552 0.000000
vt 0.786853 0.133120 0.000000
vt 0.699466 0.133120 0.000000
vt 0.699466 0.141552 0.000000
vt 0.621305 0.133120 0.000000
vt 0.621305 0.141552 0.000000
vt 0.558071 0.133120 0.000000
vt 0.558071 0.141552 0.000000
vt 0.533918 0.133120 0.000000
vt 0.533918 0.141552 0.000000
vt 0.020665 0.358519 0.000000
vt 0.008018 0.358519 0.000000
vt 0.032171 0.432855 0.000000
vt 0.042403 0.425421 0.000000
vt 0.095405 0.478797 0.000000
vt 0.099313 0.466769 0.000000
vt 0.173567 0.478797 0.000000
vt 0.169659 0.466769 0.000000
vt 0.236801 0.432855 0.000000
vt 0.226569 0.425421 0.000000
vt 0.260954 0.358519 0.000000
vt 0.248307 0.358519 0.000000
vt 0.236801 0.284183 0.000000
vt 0.226569 0.291617 0.000000
vt 0.173567 0.238241 0.000000
vt 0.169659 0.250269 0.000000
vt 0.095405 0.238241 0.000000
vt 0.099313 0.250269 0.000000
vt 0.032171 0.284183 0.000000
vt 0.042403 0.291617 0.000000
vt 0.495541 0.425421 0.000000
vt 0.505773 0.432855 0.000000
vt 0.529926 0.358519 0.000000
vt 0.517279 0.358519 0.000000
vt 0.438631 0.466769 0.000000
vt 0.442539 0.478797 0.000000
vt 0.368285 0.466769 0.000000
vt 0.364377 0.478797 0.000000
vt 0.311375 0.425421 0.000000
vt 0.301143 0.432855 0.000000
vt 0.289637 0.358519 0.000000
vt 0.276990 0.358519 0.000000
vt 0.311375 0.291617 0.000000
vt 0.301143 0.284183 0.000000
vt 0.368285 0.250269 0.000000
vt 0.364377 0.238241 0.000000
vt 0.438631 0.250269 0.000000
vt 0.442539 0.238241 0.000000
vt 0.495541 0.291617 0.000000
vt 0.505773 0.284183 0.000000
vt 0.278195 0.032907 0.000000
vt 0.278195 0.041760 0.000000
vt 0.299933 0.041760 0.000000
vt 0.299933 0.032907 0.000000
vt 0.356843 0.041760 0.000000
vt 0.356843 0.032907 0.000000
vt 0.427188 0.041760 0.000000
vt 0.427188 0.032907 0.000000
vt 0.484099 0.041760 0.000000
vt 0.484099 0.032907 0.000000
vt 0.505837 0.041760 0.000000
vt 0.505837 0.032907 0.000000
vt 0.749515 0.041760 0.000000
vt 0.749515 0.032907 0.000000
vt 0.727777 0.032907 0.000000
vt 0.727777 0.041760 0.000000
vt 0.670867 0.032907 0.000000
vt 0.670867 0.041760 0.000000
vt 0.600521 0.032907 0.000000
vt 0.600521 0.041760 0.000000
vt 0.543611 0.032907 0.000000
vt 0.543611 0.041760 0.000000
vt 0.521873 0.032907 0.000000
vt 0.521873 0.041760 0.000000
vt 0.029756 0.017292 0.000000
vt 0.029756 0.008440 0.000000
vt 0.008018 0.008440 0.000000
vt 0.008018 0.017292 0.000000
vt 0.086667 0.017292 0.000000
vt 0.086667 0.008440 0.000000
vt 0.157012 0.017292 0.000000
vt 0.157012 0.008440 0.000000
vt 0.213922 0.017292 0.000000
vt 0.213922 0.008440 0.000000
vt 0.235660 0.017292 0.000000
vt 0.235660 0.008440 0.000000
vt 0.484099 0.008018 0.000000
vt 0.484099 0.016871 0.000000
vt 0.505837 0.016871 0.000000
vt 0.505837 0.008018 0.000000
vt 0.427188 0.008018 0.000000
vt 0.427188 0.016871 0.000000
vt 0.356843 0.008018 0.000000
vt 0.356843 0.016871 0.000000
vt 0.299933 0.008018 0.000000
vt 0.299933 0.016871 0.000000
vt 0.278195 0.008018 0.000000
vt 0.278195 0.016871 0.000000
vt 0.264946 0.057796 0.000000
vt 0.264946 0.222205 0.000000
vt 0.287949 0.222205 0.000000
vt 0.287949 0.057796 0.000000
vt 0.568965 0.526908 0.000000
vt 0.568965 0.362500 0.000000
vt 0.545962 0.362500 0.000000
vt 0.545962 0.526908 0.000000
vt 0.348171 0.222205 0.000000
vt 0.348171 0.057796 0.000000
vt 0.629188 0.526908 0.000000
vt 0.629188 0.362500 0.000000
vt 0.422611 0.222205 0.000000
vt 0.422611 0.057796 0.000000
vt 0.703627 0.526908 0.000000
vt 0.703627 0.362500 0.000000
vt 0.482834 0.222205 0.000000
vt 0.482834 0.057796 0.000000
vt 0.763850 0.526908 0.000000
vt 0.763850 0.362500 0.000000
vt 0.505837 0.222205 0.000000
vt 0.505837 0.057796 0.000000
vt 0.786853 0.526908 0.000000
vt 0.786853 0.362500 0.000000
vt 0.248909 0.222205 0.000000
vt 0.248909 0.057796 0.000000
vt 0.225906 0.057796 0.000000
vt 0.225906 0.222205 0.000000
vt 0.763850 0.182056 0.000000
vt 0.763850 0.346464 0.000000
vt 0.786853 0.346464 0.000000
vt 0.786853 0.182056 0.000000
vt 0.165683 0.057796 0.000000
vt 0.165683 0.222205 0.000000
vt 0.703627 0.182056 0.000000
vt 0.703627 0.346464 0.000000
vt 0.091244 0.057796 0.000000
vt 0.091244 0.222205 0.000000
vt 0.629188 0.182056 0.000000
vt 0.629188 0.346464 0.000000
vt 0.031021 0.057796 0.000000
vt 0.031021 0.222205 0.000000
vt 0.568965 0.182056 0.000000
vt 0.568965 0.346464 0.000000
vt 0.008018 0.057796 0.000000
vt 0.008018 0.222205 0.000000
vt 0.545962 0.182056 0.000000
vt 0.545962 0.346464 0.000000
vt 0.260954 0.615111 0.000000
vt 0.254932 0.615111 0.000000
vt 0.231928 0.685907 0.000000
vt 0.236801 0.689447 0.000000
vt 0.032171 0.946040 0.000000
vt 0.037044 0.942500 0.000000
vt 0.014040 0.871704 0.000000
vt 0.008018 0.871704 0.000000
vt 0.171706 0.729662 0.000000
vt 0.173567 0.735389 0.000000
vt 0.095405 0.991982 0.000000
vt 0.097266 0.986254 0.000000
vt 0.097266 0.729662 0.000000
vt 0.095405 0.735389 0.000000
vt 0.173567 0.991982 0.000000
vt 0.171706 0.986254 0.000000
vt 0.037044 0.685907 0.000000
vt 0.032171 0.689447 0.000000
vt 0.236801 0.946040 0.000000
vt 0.231928 0.942500 0.000000
vt 0.014040 0.615111 0.000000
vt 0.008018 0.615111 0.000000
vt 0.260954 0.871704 0.000000
vt 0.254932 0.871704 0.000000
vt 0.037044 0.544315 0.000000
vt 0.032171 0.540775 0.000000
vt 0.236801 0.797368 0.000000
vt 0.231928 0.800908 0.000000
vt 0.097266 0.500561 0.000000
vt 0.095405 0.494833 0.000000
vt 0.173567 0.751426 0.000000
vt 0.171706 0.757153 0.000000
vt 0.171706 0.500561 0.000000
vt 0.173567 0.494833 0.000000
vt 0.095405 0.751426 0.000000
vt 0.097266 0.757153 0.000000
vt 0.231928 0.544315 0.000000
vt 0.236801 0.540775 0.000000
vt 0.032171 0.797368 0.000000
vt 0.037044 0.800908 0.000000
# 312 texture coordinates

o ??????
usemtl ???????_1
f 84/3/1 83/2/1 1/1/1
f 125/8/3 126/7/3 124/6/2 123/5/2
f 94/11/4 2/10/4 93/9/4
f 85/13/1 84/3/1 1/1/1
f 127/15/5 128/14/5 126/7/3 125/8/3
f 95/16/4 2/10/4 94/11/4
f 86/17/1 85/13/1 1/1/1
f 129/19/6 130/18/6 128/14/5 127/15/5
f 96/20/4 2/10/4 95/16/4
f 87/21/1 86/17/1 1/1/1
f 131/23/7 132/22/7 130/18/6 129/19/6
f 97/24/4 2/10/4 96/20/4
f 88/25/1 87/21/1 1/1/1
f 133/27/8 134/26/8 132/22/7 131/23/7
f 98/28/4 2/10/4 97/24/4
f 89/29/1 88/25/1 1/1/1
f 135/33/9 136/32/9 134/31/8 133/30/8
f 99/34/4 2/10/4 98/28/4
f 90/35/1 89/29/1 1/1/1
f 137/37/10 138/36/10 136/32/9 135/33/9
f 100/38/4 2/10/4 99/34/4
f 91/39/1 90/35/1 1/1/1
f 139/41/11 140/40/11 138/36/10 137/37/10
f 101/42/4 2/10/4 100/38/4
f 92/43/1 91/39/1 1/1/1
f 141/45/12 142/44/12 140/40/11 139/41/11
f 102/46/4 2/10/4 101/42/4
f 83/2/1 92/43/1 1/1/1
f 123/48/2 124/47/2 142/44/12 141/45/12
f 93/9/4 2/10/4 102/46/4
f 24/52/14 5/51/14 3/50/13 23/49/13
f 25/54/15 7/53/15 5/51/14 24/52/14
f 26/56/16 9/55/16 7/53/15 25/54/15
f 27/58/17 11/57/17 9/55/16 26/56/16
f 28/60/18 13/59/18 11/57/17 27/58/17
f 29/62/19 15/61/19 13/59/18 28/60/18
f 30/64/20 17/63/20 15/61/19 29/62/19
f 31/66/21 19/65/21 17/63/20 30/64/20
f 32/68/22 21/67/22 19/65/21 31/66/21
f 23/49/13 3/50/13 21/67/22 32/68/22
f 33/72/1 4/71/1 6/70/1 34/69/1
f 34/69/1 6/70/1 8/74/1 35/73/1
f 35/73/1 8/74/1 10/76/1 36/75/1
f 36/75/1 10/76/1 12/78/1 37/77/1
f 37/77/1 12/78/1 14/80/1 38/79/1
f 38/79/1 14/80/1 16/82/1 39/81/1
f 39/81/1 16/82/1 18/84/1 40/83/1
f 40/83/1 18/84/1 20/86/1 41/85/1
f 41/85/1 20/86/1 22/88/1 42/87/1
f 42/87/1 22/88/1 4/71/1 33/72/1
f 44/92/24 24/91/24 23/90/23 43/89/23
f 45/94/25 25/93/25 24/91/24 44/92/24
f 46/96/26 26/95/26 25/93/25 45/94/25
f 47/98/27 27/97/27 26/95/26 46/96/26
f 48/100/28 28/99/28 27/97/27 47/98/27
f 49/104/29 29/103/29 28/102/28 48/101/28
f 50/106/30 30/105/30 29/103/29 49/104/29
f 51/108/31 31/107/31 30/105/30 50/106/30
f 52/110/32 32/109/32 31/107/31 51/108/31
f 43/112/23 23/111/23 32/109/32 52/110/32
f 53/116/34 33/115/34 34/114/33 54/113/33
f 54/113/33 34/114/33 35/118/25 55/117/25
f 55/117/25 35/118/25 36/120/26 56/119/26
f 56/119/26 36/120/26 37/122/35 57/121/35
f 57/121/35 37/122/35 38/124/36 58/123/36
f 58/128/36 38/127/36 39/126/37 59/125/37
f 59/125/37 39/126/37 40/130/30 60/129/30
f 60/129/30 40/130/30 41/132/31 61/131/31
f 61/131/31 41/132/31 42/134/38 62/133/38
f 62/133/38 42/134/38 33/136/34 53/135/34
f 64/140/40 44/139/40 43/138/39 63/137/39
f 65/142/41 45/141/41 44/139/40 64/140/40
f 66/144/42 46/143/42 45/141/41 65/142/41
f 67/146/43 47/145/43 46/143/42 66/144/42
f 68/148/44 48/147/44 47/145/43 67/146/43
f 69/150/45 49/149/45 48/147/44 68/148/44
f 70/152/46 50/151/46 49/149/45 69/150/45
f 71/154/47 51/153/47 50/151/46 70/152/46
f 72/156/48 52/155/48 51/153/47 71/154/47
f 63/137/39 43/138/39 52/155/48 72/156/48
f 73/160/4 53/159/4 54/158/4 74/157/4
f 74/157/4 54/158/4 55/162/4 75/161/4
f 75/161/4 55/162/4 56/164/4 76/163/4
f 76/163/4 56/164/4 57/166/4 77/165/4
f 77/165/4 57/166/4 58/168/4 78/167/4
f 78/167/4 58/168/4 59/170/4 79/169/4
f 79/169/4 59/170/4 60/172/4 80/171/4
f 80/171/4 60/172/4 61/174/4 81/173/4
f 81/173/4 61/174/4 62/176/4 82/175/4
f 82/175/4 62/176/4 53/159/4 73/160/4
f 84/180/50 64/179/50 63/178/49 83/177/49
f 85/182/51 65/181/51 64/179/50 84/180/50
f 86/184/52 66/183/52 65/181/51 85/182/51
f 87/186/12 67/185/12 66/183/52 86/184/52
f 88/188/53 68/187/53 67/185/12 87/186/12
f 89/192/54 69/191/54 68/190/53 88/189/53
f 90/194/55 70/193/55 69/191/54 89/192/54
f 91/196/56 71/195/56 70/193/55 90/194/55
f 92/198/7 72/197/7 71/195/56 91/196/56
f 83/200/49 63/199/49 72/197/7 92/198/7
f 93/204/58 73/203/58 74/202/57 94/201/57
f 94/201/57 74/202/57 75/206/59 95/205/59
f 95/205/59 75/206/59 76/208/60 96/207/60
f 96/207/60 76/208/60 77/210/61 97/209/61
f 97/209/61 77/210/61 78/212/62 98/211/62
f 98/216/62 78/215/62 79/214/63 99/213/63
f 99/213/63 79/214/63 80/218/64 100/217/64
f 100/217/64 80/218/64 81/220/65 101/219/65
f 101/219/65 81/220/65 82/222/66 102/221/66
f 102/221/66 82/222/66 73/224/58 93/223/58
f 106/228/68 6/227/68 4/226/67 104/225/67
f 103/232/70 3/231/70 5/230/69 105/229/69
f 108/234/71 8/233/71 6/227/68 106/228/68
f 105/229/69 5/230/69 7/236/72 107/235/72
f 110/238/73 10/237/73 8/233/71 108/234/71
f 107/235/72 7/236/72 9/240/74 109/239/74
f 112/242/75 12/241/75 10/237/73 110/238/73
f 109/239/74 9/240/74 11/244/76 111/243/76
f 114/246/77 14/245/77 12/241/75 112/242/75
f 111/243/76 11/244/76 13/248/78 113/247/78
f 116/252/79 16/251/79 14/250/77 114/249/77
f 113/256/78 13/255/78 15/254/80 115/253/80
f 118/258/81 18/257/81 16/251/79 116/252/79
f 115/253/80 15/254/80 17/260/82 117/259/82
f 120/262/83 20/261/83 18/257/81 118/258/81
f 117/259/82 17/260/82 19/264/84 119/263/84
f 122/266/85 22/265/85 20/261/83 120/262/83
f 119/263/84 19/264/84 21/268/86 121/267/86
f 104/270/67 4/269/67 22/265/85 122/266/85
f 121/267/86 21/268/86 3/272/70 103/271/70
f 126/276/4 106/275/4 104/274/4 124/273/4
f 123/280/1 103/279/1 105/278/1 125/277/1
f 128/282/4 108/281/4 106/275/4 126/276/4
f 125/277/1 105/278/1 107/284/1 127/283/1
f 130/286/4 110/285/4 108/281/4 128/282/4
f 127/283/1 107/284/1 109/288/1 129/287/1
f 132/290/4 112/289/4 110/285/4 130/286/4
f 129/287/1 109/288/1 111/292/1 131/291/1
f 134/294/4 114/293/4 112/289/4 132/290/4
f 131/291/1 111/292/1 113/296/1 133/295/1
f 136/298/4 116/297/4 114/293/4 134/294/4
f 133/295/1 113/296/1 115/300/1 135/299/1
f 138/302/4 118/301/4 116/297/4 136/298/4
f 135/299/1 115/300/1 117/304/1 137/303/1
f 140/306/4 120/305/4 118/301/4 138/302/4
f 137/303/1 117/304/1 119/308/1 139/307/1
f 142/310/4 122/309/4 120/305/4 140/306/4
f 139/307/1 119/308/1 121/312/1 141/311/1
f 124/273/4 104/274/4 122/309/4 142/310/4
f 141/311/1 121/312/1 103/279/1 123/280/1

