# WaveFront *.obj file (generated by Cinema 4D)

mtllib ./Ğ½Ğ¾Ğ¶.mtl

v -0.676058 -3.702669 19.717056
v -0.676058 4.168936 19.717056
v 0.676058 -3.702669 19.717056
v 0.676058 4.168936 19.717056
v 0.676058 -6.064966 -25.473463
v 0.676058 4.168936 -25.473463
v -0.676058 -6.064966 -25.473463
v -0.676058 4.168936 -25.473463
v -0.676058 -3.702669 24.360952
v -0.676058 4.168936 24.360952
v 0.676058 -3.702669 24.360952
v 0.676058 4.168936 24.360952
v -0.676058 -8.434253 19.717056
v 0.676058 -8.434253 19.717056
v -0.676058 -8.434253 24.360952
v 0.676058 -8.434253 24.360952
v -0.676058 -2.924649 76.327438
v -0.676058 4.168936 76.589594
v 0.676058 -2.924649 76.327438
v 0.676058 4.168936 76.589594
v 0.000000 -9.528323 61.159317
v 0.000000 -6.542579 79.977586
v -0.676058 4.117480 83.607720
v 0.000000 4.075572 89.412397
v 0.676058 4.117480 83.607720
v 0.676058 4.168936 60.964939
v -0.676058 -4.796740 68.768113
v 0.676058 -4.796740 61.207709
v 0.000000 -9.528323 69.205892
v 0.676058 -4.796740 68.768113
v 0.676058 4.168936 68.826639
v -0.676058 4.168936 68.826639
v -0.676058 -4.796740 61.207709
v -0.676058 4.168936 60.964939
v -0.676058 4.168936 24.468321
v 0.676058 4.168936 24.468321
v 0.676058 -3.705622 24.468977
v -0.676058 -3.705622 24.468977
v 0.000000 -8.437206 24.468977
v -0.676058 -4.443275 72.752132
v -0.676058 4.168936 72.948042
v 0.676058 4.168936 72.948042
v 0.676058 -4.443275 72.752132
v 0.000000 -8.967768 74.574632
v 2.217275 -3.702669 19.717056
v 2.217275 4.168936 19.717056
v 2.217275 -6.064966 -25.473463
v 2.217275 4.168936 -25.473463
v -2.217275 -3.702669 19.717056
v -2.217275 4.168936 19.717056
v -2.217275 -6.064966 -25.473463
v -2.217275 4.168936 -25.473463
v -0.676058 4.168936 16.215525
v 0.676058 4.168936 16.215525
v 2.217275 4.168936 16.215525
v 2.217275 -7.352608 15.056266
v 0.676058 -7.352608 15.056266
v -0.676058 -7.352608 15.056266
v -2.217275 -7.352608 15.056266
v -2.217275 4.168936 16.215525
v -0.676058 -9.653367 19.717056
v 0.676058 -9.653367 19.717056
v 2.217275 -9.653367 19.717056
v -2.217275 -9.653367 19.717056
v 2.217275 -9.653367 16.215525
v 0.676058 -9.653367 16.215525
v -0.676058 -9.653367 16.215525
v -2.217275 -9.653367 16.215525
v -2.217275 4.168936 13.830461
v -2.217275 -6.064966 12.072979
v -0.676058 -6.064966 12.072979
v 0.676058 -6.064966 12.072979
v 2.217275 -6.064966 12.072979
v 2.217275 4.168936 13.830461
v 0.676058 4.168936 13.830461
v -0.676058 4.168936 13.830461
v 0.676058 -5.048802 -26.721837
v 0.676058 3.152772 -26.721837
v -0.676058 -5.048802 -26.721837
v -0.676058 3.152772 -26.721837
v 2.217275 -5.048802 -26.721837
v 2.217275 3.152772 -26.721837
v -2.217275 -5.048802 -26.721837
v -2.217275 3.152772 -26.721837
# 84 vertices

vn 0.000000 0.999974 0.007276
vn 0.000000 0.999973 0.007332
vn 1.000000 0.000000 0.000000
vn 0.000000 0.000000 -1.000000
vn -1.000000 0.000000 0.000000
vn 0.000000 1.000000 0.000000
vn 0.000000 -1.000000 0.000000
vn 0.000000 0.999974 0.007220
vn -0.990287 -0.127424 0.055635
vn 0.990370 -0.126871 0.055424
vn -0.989940 -0.141423 -0.004203
vn -0.989101 -0.102342 0.105855
vn 0.989920 -0.097698 0.102537
vn -0.989946 -0.141445 0.000000
vn 0.989940 -0.141423 -0.004203
vn 0.989946 -0.141445 0.000000
vn 0.760868 -0.014820 0.648737
vn 0.000000 -0.999626 -0.027331
vn -0.756005 -0.093169 0.647901
vn 0.989899 -0.141115 0.013633
vn -0.989853 -0.141440 0.013648
vn 0.000000 0.000000 1.000000
vn 0.000000 -0.918129 -0.396281
vn 0.000000 -0.449968 -0.893045
vn 0.000000 -0.449968 -0.893045
vn 0.000000 -0.918129 -0.396281
vn 0.000000 0.775549 -0.631288
vn 0.000000 -0.775549 -0.631288
vn 0.000000 0.775549 -0.631288
# 29 normals

vt 0.622990 0.054851 0.000000
vt 0.622990 0.114628 0.000000
vt 0.634506 0.114628 0.000000
vt 0.634506 0.054851 0.000000
vt 0.005409 0.672573 0.000000
vt 0.005409 0.739620 0.000000
vt 0.035234 0.739620 0.000000
vt 0.045108 0.641485 0.000000
vt 0.473491 0.541212 0.000000
vt 0.473491 0.611070 0.000000
vt 0.485007 0.611070 0.000000
vt 0.485007 0.541212 0.000000
vt 0.016042 0.523902 0.000000
vt 0.016042 0.611070 0.000000
vt 0.350816 0.611070 0.000000
vt 0.335847 0.523902 0.000000
vt 0.622990 0.599044 0.000000
vt 0.622990 0.628869 0.000000
vt 0.634506 0.628869 0.000000
vt 0.634506 0.599044 0.000000
vt 0.424901 0.394405 0.000000
vt 0.424901 0.714210 0.000000
vt 0.436418 0.714210 0.000000
vt 0.436418 0.394405 0.000000
vt 0.044964 0.927544 0.000000
vt 0.005409 0.927544 0.000000
vt 0.005409 0.994591 0.000000
vt 0.044964 0.994591 0.000000
vt 0.622990 0.559490 0.000000
vt 0.634506 0.559490 0.000000
vt 0.559490 0.867106 0.000000
vt 0.599044 0.867106 0.000000
vt 0.599044 0.800059 0.000000
vt 0.559490 0.800059 0.000000
vt 0.520470 0.738700 0.000000
vt 0.520470 0.699145 0.000000
vt 0.508953 0.699145 0.000000
vt 0.508953 0.738700 0.000000
vt 0.559490 0.759757 0.000000
vt 0.599044 0.759757 0.000000
vt 0.508953 0.648026 0.000000
vt 0.508953 0.688327 0.000000
vt 0.520470 0.688327 0.000000
vt 0.520470 0.648026 0.000000
vt 0.005409 0.887242 0.000000
vt 0.044964 0.887242 0.000000
vt 0.628748 0.005409 0.000000
vt 0.634094 0.989183 32768.000000
vt 0.487592 0.934171 0.000000
vt 0.457139 0.921236 0.000000
vt 0.458808 0.994591 0.000000
vt 0.489825 0.994591 0.000000
vt 0.622990 0.145645 0.000000
vt 0.634506 0.145645 0.000000
vt 0.114628 0.867106 0.000000
vt 0.145645 0.867106 0.000000
vt 0.147314 0.793750 0.000000
vt 0.116861 0.806685 0.000000
vt 0.518683 0.903355 0.000000
vt 0.472662 0.882698 0.000000
vt 0.131791 0.755213 0.000000
vt 0.085771 0.775869 0.000000
vt 0.045884 0.927519 0.000000
vt 0.045878 0.994591 0.000000
vt 0.549603 0.994153 0.000000
vt 0.488142 0.909601 0.000000
vt 0.358397 0.877924 0.000000
vt 0.045884 0.887217 0.000000
vt 0.358809 0.918225 0.000000
vt 0.054851 0.866667 0.000000
vt 0.160824 0.770599 32768.000000
vt 0.599044 0.993796 0.000000
vt 0.005409 0.866310 0.000000
vt 0.426934 0.877924 0.000000
vt 0.423205 0.918225 0.000000
vt 0.245645 0.790740 0.000000
vt 0.558569 0.800033 0.000000
vt 0.558569 0.759732 0.000000
vt 0.246057 0.750438 0.000000
vt 0.181248 0.790740 0.000000
vt 0.177519 0.750438 0.000000
vt 0.180750 0.867106 0.000000
vt 0.247712 0.867106 0.000000
vt 0.622990 0.180750 0.000000
vt 0.622990 0.247712 0.000000
vt 0.634506 0.247712 0.000000
vt 0.634506 0.180750 0.000000
vt 0.356741 0.994591 0.000000
vt 0.423704 0.994591 0.000000
vt 0.622990 0.558575 0.000000
vt 0.634506 0.558575 0.000000
vt 0.558575 0.867106 0.000000
vt 0.514711 0.739620 0.000000
vt 0.519089 0.736786 32768.000000
vt 0.514711 0.541212 0.000000
vt 0.508953 0.541237 0.000000
vt 0.508953 0.581539 0.000000
vt 0.508953 0.581514 0.000000
vt 0.498135 0.672573 0.000000
vt 0.485007 0.672573 0.000000
vt 0.485007 0.739620 0.000000
vt 0.498135 0.739620 0.000000
vt 0.647634 0.599044 0.000000
vt 0.647634 0.628869 0.000000
vt 0.460363 0.611070 0.000000
vt 0.460363 0.541212 0.000000
vt 0.449545 0.394405 0.000000
vt 0.449545 0.714210 0.000000
vt 0.498135 0.541212 0.000000
vt 0.498135 0.611070 0.000000
vt 0.609862 0.983958 0.000000
vt 0.622990 0.983958 0.000000
vt 0.622990 0.649184 0.000000
vt 0.609862 0.649184 0.000000
vt 0.460363 0.739620 0.000000
vt 0.473491 0.739620 0.000000
vt 0.473491 0.672573 0.000000
vt 0.460363 0.672573 0.000000
vt 0.460363 0.530394 0.000000
vt 0.473491 0.530394 0.000000
vt 0.473491 0.500570 0.000000
vt 0.460363 0.500570 0.000000
vt 0.634506 0.649184 0.000000
vt 0.647634 0.649184 0.000000
vt 0.055549 0.739620 0.000000
vt 0.070518 0.652452 0.000000
vt 0.485007 0.500570 0.000000
vt 0.485007 0.530394 0.000000
vt 0.498135 0.530394 0.000000
vt 0.498135 0.500570 0.000000
vt 0.424901 0.739620 0.000000
vt 0.411774 0.714210 0.000000
vt 0.411774 0.739620 0.000000
vt 0.371131 0.611070 0.000000
vt 0.400956 0.611070 0.000000
vt 0.400956 0.544023 0.000000
vt 0.361257 0.512934 0.000000
vt 0.609862 0.599044 0.000000
vt 0.609862 0.628869 0.000000
vt 0.460363 0.621888 0.000000
vt 0.473491 0.621888 0.000000
vt 0.485007 0.470155 0.000000
vt 0.485007 0.489752 0.000000
vt 0.498135 0.489752 0.000000
vt 0.498135 0.470155 0.000000
vt 0.371131 0.493337 0.000000
vt 0.400956 0.493337 0.000000
vt 0.485007 0.621888 0.000000
vt 0.498135 0.621888 0.000000
vt 0.005409 0.621888 0.000000
vt 0.035234 0.621888 0.000000
vt 0.460363 0.470155 0.000000
vt 0.460363 0.489752 0.000000
vt 0.473491 0.489752 0.000000
vt 0.473491 0.470155 0.000000
vt 0.411774 0.394405 0.000000
vt 0.436418 0.739620 0.000000
vt 0.449545 0.739620 0.000000
vt 0.390323 0.739620 0.000000
vt 0.390323 0.652452 0.000000
vt 0.634506 0.983958 0.000000
vt 0.647634 0.983958 0.000000
vt 0.634506 0.994591 0.000000
vt 0.622990 0.994591 0.000000
vt 0.424901 0.383772 0.000000
vt 0.436418 0.383772 0.000000
vt 0.647634 0.994591 0.000000
vt 0.449545 0.383772 0.000000
vt 0.400956 0.661107 0.000000
vt 0.400956 0.730965 0.000000
vt 0.411774 0.383772 0.000000
vt 0.609862 0.994591 0.000000
vt 0.005409 0.602414 0.000000
vt 0.005409 0.532557 0.000000
# 174 texture coordinates

o ?????
usemtl ???????_1
f 25/4/1 20/3/2 18/2/2 23/1/1
f 56/8/3 55/7/3 46/6/3 45/5/3
f 79/12/4 80/11/4 78/10/4 77/9/4
f 70/16/5 69/15/5 52/14/5 51/13/5
f 4/20/6 54/19/6 53/18/6 2/17/6
f 5/24/7 72/23/7 71/22/7 7/21/7
f 10/28/5 2/27/5 1/26/5 9/25/5
f 12/30/6 4/20/6 2/17/6 10/29/6
f 11/34/3 3/33/3 4/32/3 12/31/3
f 15/38/7 13/37/7 14/36/7 16/35/7
f 14/40/3 3/33/3 11/34/3 16/39/3
f 13/44/4 1/43/4 3/42/4 14/41/4
f 15/46/5 9/25/5 1/26/5 13/45/5
f 24/47/8 25/4/1 23/1/1
f 18/52/5 41/51/5 40/50/5 17/49/5
f 20/3/6 42/54/6 41/53/6 18/2/6
f 19/58/3 43/57/3 42/56/3 20/55/3
f 17/49/9 40/50/9 44/60/9 22/59/9
f 22/62/10 44/61/10 43/57/10 19/58/10
f 35/64/5 10/28/5 9/25/5 38/63/5
f 18/52/5 17/49/5 23/65/5
f 33/69/11 38/63/11 39/68/11 21/67/11
f 25/70/3 19/58/3 20/55/3
f 23/65/12 17/49/12 22/59/12 24/72/12
f 24/73/13 22/62/13 19/58/13 25/70/13
f 27/75/14 33/69/14 21/67/14 29/74/14
f 21/79/15 39/78/15 37/77/15 28/76/15
f 29/81/16 21/79/16 28/76/16 30/80/16
f 30/80/3 28/76/3 26/83/3 31/82/3
f 31/87/6 26/86/6 34/85/6 32/84/6
f 32/89/5 34/88/5 33/69/5 27/75/5
f 34/88/5 35/64/5 38/63/5 33/69/5
f 26/86/6 36/91/6 35/90/6 34/85/6
f 28/76/3 37/77/3 36/92/3 26/83/3
f 36/91/6 12/30/6 10/29/6 35/90/6
f 37/77/3 11/34/3 12/31/3 36/92/3
f 39/78/17 16/39/17 11/34/17 37/77/17
f 39/93/18 15/38/18 16/35/18
f 38/98/19 9/97/19 15/96/19 39/95/19
f 41/51/5 32/89/5 27/75/5 40/50/5
f 42/54/6 31/87/6 32/84/6 41/53/6
f 43/57/3 30/80/3 31/82/3 42/56/3
f 44/61/20 29/81/20 30/80/20 43/57/20
f 40/50/21 27/75/21 29/74/21 44/60/21
f 46/102/22 4/101/22 3/100/22 45/99/22
f 55/104/6 54/19/6 4/20/6 46/103/6
f 81/106/4 77/9/4 78/10/4 82/105/4
f 73/108/7 72/23/7 5/24/7 47/107/7
f 84/110/4 80/11/4 79/12/4 83/109/4
f 69/114/6 76/113/6 8/112/6 52/111/6
f 49/118/22 1/117/22 2/116/22 50/115/22
f 68/122/7 67/121/7 61/120/7 64/119/7
f 54/19/6 75/123/6 76/113/6 53/18/6
f 55/104/6 74/124/6 75/123/6 54/19/6
f 56/8/3 73/126/3 74/125/3 55/7/3
f 65/130/7 63/129/7 62/128/7 66/127/7
f 66/127/7 62/128/7 61/120/7 67/121/7
f 59/133/23 70/132/23 71/22/23 58/131/23
f 59/137/5 49/136/5 50/135/5 60/134/5
f 60/139/6 50/138/6 2/17/6 53/18/6
f 61/141/22 1/117/22 49/118/22 64/140/22
f 68/145/24 59/144/24 58/143/24 67/142/24
f 64/147/5 49/136/5 59/137/5 68/146/5
f 63/149/22 45/99/22 3/100/22 62/148/22
f 65/151/3 56/8/3 45/5/3 63/150/3
f 66/155/24 57/154/24 56/153/24 65/152/24
f 62/148/22 3/100/22 1/117/22 61/141/22
f 67/142/25 58/143/25 57/154/25 66/155/25
f 70/16/5 59/137/5 60/134/5 69/15/5
f 70/132/7 51/156/7 7/21/7 71/22/7
f 72/23/26 57/157/26 58/131/26 71/22/26
f 73/108/23 56/158/23 57/157/23 72/23/23
f 73/126/3 47/160/3 48/159/3 74/125/3
f 74/124/6 48/162/6 6/161/6 75/123/6
f 75/123/6 6/161/6 8/112/6 76/113/6
f 69/114/6 60/139/6 53/18/6 76/113/6
f 80/164/27 8/112/27 6/161/27 78/163/27
f 77/166/28 5/24/28 7/21/28 79/165/28
f 78/163/29 6/161/29 48/162/29 82/167/29
f 81/168/28 47/107/28 5/24/28 77/166/28
f 82/170/3 48/159/3 47/160/3 81/169/3
f 79/165/28 7/21/28 51/156/28 83/171/28
f 84/172/29 52/111/29 8/112/29 80/164/29
f 83/174/5 51/13/5 52/14/5 84/173/5

