# WaveFront *.obj file (generated by Cinema 4D)

mtllib ./энергетик.mtl

v -0.177146 1.232466 0.000000
v -0.177146 11.930964 0.000000
v 2.445053 0.610501 0.000000
v 2.445053 11.495666 0.000000
v 1.944258 0.610501 -1.541290
v 1.944258 11.495666 -1.541290
v 0.633158 0.610501 -2.493859
v 0.633158 11.495666 -2.493859
v -0.987449 0.610501 -2.493859
v -0.987449 11.495666 -2.493859
v -2.298549 0.610501 -1.541290
v -2.298549 11.495666 -1.541290
v -2.799344 0.610501 -0.000000
v -2.799344 11.495666 -0.000000
v -2.298549 0.610501 1.541290
v -2.298549 11.495666 1.541290
v -0.987449 0.610501 2.493859
v -0.987449 11.495666 2.493859
v 0.633158 0.610501 2.493859
v 0.633158 11.495666 2.493859
v 1.944258 0.610501 1.541290
v 1.944258 11.495666 1.541290
v 2.056968 0.252637 0.000000
v 1.630290 0.252637 -1.313179
v 0.513233 0.252637 -2.124768
v -0.867524 0.252637 -2.124768
v -1.984581 0.252637 -1.313179
v -2.411259 0.252637 -0.000000
v -1.984581 0.252637 1.313179
v -0.867524 0.252637 2.124768
v 0.513233 0.252637 2.124768
v 1.630290 0.252637 1.313179
v 2.056968 11.853530 0.000000
v 1.630290 11.853530 -1.313179
v 0.513233 11.853530 -2.124768
v -0.867524 11.853530 -2.124768
v -1.984581 11.853530 -1.313179
v -2.411259 11.853530 -0.000000
v -1.984581 11.853530 1.313179
v -0.867524 11.853530 2.124768
v 0.513233 11.853530 2.124768
v 1.630290 11.853530 1.313179
v 2.056968 -0.025834 0.000000
v 1.630290 -0.025834 -1.313179
v 0.513233 -0.025834 -2.124768
v -0.867524 -0.025834 -2.124768
v -1.984581 -0.025834 -1.313179
v -2.411259 -0.025834 -0.000000
v -1.984581 -0.025834 1.313179
v -0.867524 -0.025834 2.124768
v 0.513233 -0.025834 2.124768
v 1.630290 -0.025834 1.313179
v 2.056968 12.132000 0.000000
v 1.630290 12.132000 -1.313179
v 0.513233 12.132000 -2.124768
v -0.867524 12.132000 -2.124768
v -1.984581 12.132000 -1.313179
v -2.411259 12.132000 -0.000000
v -1.984581 12.132000 1.313179
v -0.867524 12.132000 2.124768
v 0.513233 12.132000 2.124768
v 1.630290 12.132000 1.313179
v 1.853663 -0.025835 0.000000
v 1.465813 -0.025835 -1.193680
v 0.450409 -0.025835 -1.931414
v -0.804700 -0.025835 -1.931414
v -1.820104 -0.025835 -1.193680
v -2.207954 -0.025835 -0.000000
v -1.820104 -0.025835 1.193680
v -0.804700 -0.025835 1.931414
v 0.450409 -0.025835 1.931414
v 1.465813 -0.025835 1.193680
v 1.853663 12.132002 0.000000
v 1.465813 12.132002 -1.193680
v 0.450409 12.132002 -1.931414
v -0.804700 12.132002 -1.931414
v -1.820104 12.132002 -1.193680
v -2.207954 12.132002 -0.000000
v -1.820104 12.132002 1.193680
v -0.804700 12.132002 1.931414
v 0.450409 12.132002 1.931414
v 1.465813 12.132002 1.193680
v 1.853663 0.175203 0.000000
v 1.465813 0.175203 -1.193680
v 0.450409 0.175203 -1.931414
v -0.804700 0.175203 -1.931414
v -1.820104 0.175203 -1.193680
v -2.207954 0.175203 -0.000000
v -1.820104 0.175203 1.193680
v -0.804700 0.175203 1.931414
v 0.450409 0.175203 1.931414
v 1.465813 0.175203 1.193680
v 1.853663 11.930964 0.000000
v 1.465813 11.930964 -1.193680
v 0.450409 11.930964 -1.931414
v -0.804700 11.930964 -1.931414
v -1.820104 11.930964 -1.193680
v -2.207954 11.930964 -0.000000
v -1.820104 11.930964 1.193680
v -0.804700 11.930964 1.931414
v 0.450409 11.930964 1.931414
v 1.465813 11.930964 1.193680
v -0.785519 8.672606 1.884708
v -0.785519 8.389604 -0.150163
v 0.431228 8.672606 1.884708
v 0.431228 8.389604 -0.150163
# 106 vertices

vn 0.000000 -1.000000 0.000000
vn -0.461780 -0.886995 0.000000
vn -0.373588 -0.886995 0.271427
vn 1.000000 0.000000 0.000000
vn 0.809017 0.000000 -0.587785
vn 0.000000 1.000000 0.000000
vn -0.142698 -0.886995 0.439179
vn 0.309017 0.000000 -0.951056
vn 0.142698 -0.886995 0.439179
vn -0.309017 0.000000 -0.951056
vn 0.373588 -0.886995 0.271427
vn -0.809017 0.000000 -0.587785
vn 0.461780 -0.886995 0.000000
vn -1.000000 0.000000 0.000000
vn 0.373588 -0.886995 -0.271427
vn -0.809017 0.000000 0.587785
vn 0.142698 -0.886995 -0.439179
vn -0.309017 0.000000 0.951056
vn -0.142698 -0.886995 -0.439179
vn 0.309017 0.000000 0.951056
vn -0.373588 -0.886995 -0.271427
vn 0.809017 0.000000 0.587785
vn 0.677903 -0.735151 0.000000
vn 0.548435 -0.735151 -0.398462
vn 0.209484 -0.735151 -0.644724
vn -0.209484 -0.735151 -0.644724
vn -0.548435 -0.735151 -0.398462
vn -0.677903 -0.735151 0.000000
vn -0.548435 -0.735151 0.398462
vn -0.209484 -0.735151 0.644724
vn 0.209484 -0.735151 0.644724
vn 0.548435 -0.735151 0.398462
vn 0.548435 0.735151 -0.398462
vn 0.677903 0.735151 -0.000000
vn 0.209484 0.735151 -0.644724
vn -0.209484 0.735151 -0.644724
vn -0.548435 0.735151 -0.398462
vn -0.677903 0.735151 0.000000
vn -0.548435 0.735151 0.398462
vn -0.209484 0.735151 0.644724
vn 0.209484 0.735151 0.644724
vn 0.548435 0.735151 0.398462
vn 0.809017 0.000000 -0.587785
vn 0.309017 0.000000 -0.951057
vn -0.309017 0.000000 -0.951057
vn -0.809017 0.000000 -0.587785
vn -0.809017 0.000000 0.587785
vn -0.309017 0.000000 0.951057
vn 0.309017 0.000000 0.951057
vn 0.809017 0.000000 0.587785
vn 0.809017 0.000000 -0.587785
vn -0.809017 0.000000 -0.587785
vn -0.809017 0.000000 0.587785
vn 0.809017 0.000000 0.587785
vn 0.000008 -1.000000 -0.000000
vn 0.000007 -1.000000 -0.000005
vn 0.000003 -1.000000 -0.000008
vn -0.000003 -1.000000 -0.000008
vn -0.000007 -1.000000 -0.000005
vn -0.000008 -1.000000 0.000000
vn -0.000007 -1.000000 0.000005
vn -0.000003 -1.000000 0.000008
vn 0.000003 -1.000000 0.000008
vn 0.000007 -1.000000 0.000005
vn 0.000004 1.000000 -0.000003
vn 0.000005 1.000000 0.000000
vn 0.000001 1.000000 -0.000004
vn -0.000001 1.000000 -0.000004
vn -0.000004 1.000000 -0.000003
vn -0.000005 1.000000 -0.000000
vn -0.000004 1.000000 0.000003
vn -0.000001 1.000000 0.000004
vn 0.000001 1.000000 0.000004
vn 0.000004 1.000000 0.000003
vn -0.809017 0.000000 0.587785
vn -0.809017 0.000000 -0.587785
vn -1.000000 0.000000 -0.000000
vn -0.309017 0.000000 0.951056
vn 0.309017 0.000000 0.951056
vn 0.309017 0.000000 -0.951056
vn -0.309017 0.000000 -0.951057
vn 0.000000 0.990467 -0.137750
# 82 normals

vt 0.718744 0.168472 0.000000
vt 0.828451 0.168472 0.000000
vt 0.807499 0.103988 0.000000
vt 0.724162 0.196062 0.000000
vt 0.008483 0.403482 0.000000
vt 0.008483 0.991517 0.000000
vt 0.035536 0.991517 0.000000
vt 0.035536 0.403482 0.000000
vt 0.828451 0.394114 0.000000
vt 0.718744 0.394114 0.000000
vt 0.807499 0.458599 0.000000
vt 0.816999 0.373497 0.000000
vt 0.752645 0.064134 0.000000
vt 0.726609 0.197878 0.000000
vt 0.106364 0.991517 0.000000
vt 0.106364 0.403482 0.000000
vt 0.752645 0.498452 0.000000
vt 0.814564 0.375108 0.000000
vt 0.684842 0.064134 0.000000
vt 0.729706 0.197890 0.000000
vt 0.193912 0.991517 0.000000
vt 0.193912 0.403482 0.000000
vt 0.684842 0.498452 0.000000
vt 0.811516 0.374930 0.000000
vt 0.629988 0.103988 0.000000
vt 0.732252 0.196133 0.000000
vt 0.264740 0.991517 0.000000
vt 0.264740 0.403482 0.000000
vt 0.629988 0.458599 0.000000
vt 0.809050 0.373085 0.000000
vt 0.609036 0.168472 0.000000
vt 0.733256 0.193275 0.000000
vt 0.291794 0.991517 0.000000
vt 0.291794 0.403482 0.000000
vt 0.609036 0.394114 0.000000
vt 0.808238 0.370200 0.000000
vt 0.629988 0.232957 0.000000
vt 0.732392 0.190380 0.000000
vt 0.308759 0.403482 0.000000
vt 0.308759 0.991517 0.000000
vt 0.335813 0.991517 0.000000
vt 0.335813 0.403482 0.000000
vt 0.629988 0.329630 0.000000
vt 0.809302 0.367437 0.000000
vt 0.684842 0.272811 0.000000
vt 0.729873 0.188552 0.000000
vt 0.406641 0.991517 0.000000
vt 0.406641 0.403482 0.000000
vt 0.684842 0.289776 0.000000
vt 0.811814 0.365847 0.000000
vt 0.752645 0.272811 0.000000
vt 0.726727 0.188441 0.000000
vt 0.494189 0.991517 0.000000
vt 0.494189 0.403482 0.000000
vt 0.752645 0.289776 0.000000
vt 0.814810 0.366027 0.000000
vt 0.807499 0.232957 0.000000
vt 0.724223 0.190202 0.000000
vt 0.565017 0.991517 0.000000
vt 0.565017 0.403482 0.000000
vt 0.807499 0.329630 0.000000
vt 0.817173 0.367782 0.000000
vt 0.723279 0.193123 0.000000
vt 0.592071 0.991517 0.000000
vt 0.592071 0.403482 0.000000
vt 0.817881 0.370663 0.000000
vt 0.571105 0.251794 0.000000
vt 0.592071 0.251794 0.000000
vt 0.565017 0.168531 0.000000
vt 0.548056 0.180854 0.000000
vt 0.494189 0.117072 0.000000
vt 0.487710 0.137011 0.000000
vt 0.406641 0.117072 0.000000
vt 0.413119 0.137011 0.000000
vt 0.335813 0.168531 0.000000
vt 0.352774 0.180854 0.000000
vt 0.308759 0.251794 0.000000
vt 0.329724 0.251794 0.000000
vt 0.335813 0.335057 0.000000
vt 0.352774 0.322734 0.000000
vt 0.406641 0.386517 0.000000
vt 0.413119 0.366578 0.000000
vt 0.494189 0.386517 0.000000
vt 0.487710 0.366578 0.000000
vt 0.565017 0.335057 0.000000
vt 0.548056 0.322734 0.000000
vt 0.247779 0.322734 0.000000
vt 0.264740 0.335057 0.000000
vt 0.291794 0.251794 0.000000
vt 0.270829 0.251794 0.000000
vt 0.187434 0.366578 0.000000
vt 0.193912 0.386517 0.000000
vt 0.112843 0.366578 0.000000
vt 0.106364 0.386517 0.000000
vt 0.052498 0.322734 0.000000
vt 0.035536 0.335057 0.000000
vt 0.029448 0.251794 0.000000
vt 0.008483 0.251794 0.000000
vt 0.052498 0.180854 0.000000
vt 0.035536 0.168531 0.000000
vt 0.112843 0.137011 0.000000
vt 0.106364 0.117072 0.000000
vt 0.187434 0.137011 0.000000
vt 0.193912 0.117072 0.000000
vt 0.247779 0.180854 0.000000
vt 0.264740 0.168531 0.000000
vt 0.008483 0.085063 0.000000
vt 0.008483 0.100107 0.000000
vt 0.031532 0.100107 0.000000
vt 0.031532 0.085063 0.000000
vt 0.091878 0.100107 0.000000
vt 0.091878 0.085063 0.000000
vt 0.166469 0.100107 0.000000
vt 0.166469 0.085063 0.000000
vt 0.226814 0.100107 0.000000
vt 0.226814 0.085063 0.000000
vt 0.249864 0.100107 0.000000
vt 0.249864 0.085063 0.000000
vt 0.266829 0.085063 0.000000
vt 0.266829 0.100107 0.000000
vt 0.289879 0.100107 0.000000
vt 0.289879 0.085063 0.000000
vt 0.350224 0.100107 0.000000
vt 0.350224 0.085063 0.000000
vt 0.424815 0.100107 0.000000
vt 0.424815 0.085063 0.000000
vt 0.485161 0.100107 0.000000
vt 0.485161 0.085063 0.000000
vt 0.508210 0.100107 0.000000
vt 0.508210 0.085063 0.000000
vt 0.031532 0.068098 0.000000
vt 0.031532 0.053054 0.000000
vt 0.008483 0.053054 0.000000
vt 0.008483 0.068098 0.000000
vt 0.091878 0.068098 0.000000
vt 0.091878 0.053054 0.000000
vt 0.166469 0.068098 0.000000
vt 0.166469 0.053054 0.000000
vt 0.226814 0.068098 0.000000
vt 0.226814 0.053054 0.000000
vt 0.249864 0.068098 0.000000
vt 0.249864 0.053054 0.000000
vt 0.289879 0.068098 0.000000
vt 0.289879 0.053054 0.000000
vt 0.266829 0.053054 0.000000
vt 0.266829 0.068098 0.000000
vt 0.350224 0.068098 0.000000
vt 0.350224 0.053054 0.000000
vt 0.424815 0.068098 0.000000
vt 0.424815 0.053054 0.000000
vt 0.485161 0.068098 0.000000
vt 0.485161 0.053054 0.000000
vt 0.508210 0.068098 0.000000
vt 0.508210 0.053054 0.000000
vt 0.839434 0.630201 0.000000
vt 0.850417 0.630201 0.000000
vt 0.827367 0.559261 0.000000
vt 0.818482 0.565717 0.000000
vt 0.767022 0.515418 0.000000
vt 0.763628 0.525863 0.000000
vt 0.692431 0.515418 0.000000
vt 0.695825 0.525863 0.000000
vt 0.632086 0.559261 0.000000
vt 0.640971 0.565717 0.000000
vt 0.609036 0.630201 0.000000
vt 0.620019 0.630201 0.000000
vt 0.632086 0.701141 0.000000
vt 0.640971 0.694686 0.000000
vt 0.692431 0.744985 0.000000
vt 0.695825 0.734540 0.000000
vt 0.767022 0.744985 0.000000
vt 0.763628 0.734540 0.000000
vt 0.827367 0.701141 0.000000
vt 0.818482 0.694686 0.000000
vt 0.818482 0.941218 0.000000
vt 0.827367 0.947674 0.000000
vt 0.850417 0.876734 0.000000
vt 0.839434 0.876734 0.000000
vt 0.763628 0.981072 0.000000
vt 0.767022 0.991517 0.000000
vt 0.695825 0.981072 0.000000
vt 0.692431 0.991517 0.000000
vt 0.640971 0.941218 0.000000
vt 0.632086 0.947674 0.000000
vt 0.620019 0.876734 0.000000
vt 0.609036 0.876734 0.000000
vt 0.640971 0.812249 0.000000
vt 0.632086 0.805794 0.000000
vt 0.695825 0.772395 0.000000
vt 0.692431 0.761950 0.000000
vt 0.763628 0.772395 0.000000
vt 0.767022 0.761950 0.000000
vt 0.818482 0.812249 0.000000
vt 0.827367 0.805794 0.000000
vt 0.828451 0.047169 0.000000
vt 0.828451 0.036308 0.000000
vt 0.807499 0.036308 0.000000
vt 0.807499 0.047169 0.000000
vt 0.752645 0.036308 0.000000
vt 0.752645 0.047169 0.000000
vt 0.684842 0.036308 0.000000
vt 0.684842 0.047169 0.000000
vt 0.629988 0.036308 0.000000
vt 0.629988 0.047169 0.000000
vt 0.609036 0.036308 0.000000
vt 0.609036 0.047169 0.000000
vt 0.227898 0.036089 0.000000
vt 0.227898 0.025229 0.000000
vt 0.206946 0.025229 0.000000
vt 0.206946 0.036089 0.000000
vt 0.152092 0.025229 0.000000
vt 0.152092 0.036089 0.000000
vt 0.084289 0.025229 0.000000
vt 0.084289 0.036089 0.000000
vt 0.029435 0.025229 0.000000
vt 0.029435 0.036089 0.000000
vt 0.008483 0.025229 0.000000
vt 0.008483 0.036089 0.000000
vt 0.443327 0.025229 0.000000
vt 0.443327 0.036089 0.000000
vt 0.464279 0.036089 0.000000
vt 0.464279 0.025229 0.000000
vt 0.388473 0.025229 0.000000
vt 0.388473 0.036089 0.000000
vt 0.320670 0.025229 0.000000
vt 0.320670 0.036089 0.000000
vt 0.265816 0.025229 0.000000
vt 0.265816 0.036089 0.000000
vt 0.244863 0.025229 0.000000
vt 0.244863 0.036089 0.000000
vt 0.807499 0.008483 0.000000
vt 0.807499 0.019343 0.000000
vt 0.828451 0.019343 0.000000
vt 0.828451 0.008483 0.000000
vt 0.752645 0.008483 0.000000
vt 0.752645 0.019343 0.000000
vt 0.684842 0.008483 0.000000
vt 0.684842 0.019343 0.000000
vt 0.629988 0.008483 0.000000
vt 0.629988 0.019343 0.000000
vt 0.609036 0.008483 0.000000
vt 0.609036 0.019343 0.000000
vt 0.845417 0.388525 0.000000
vt 0.845417 0.498452 0.000000
vt 0.911147 0.498452 0.000000
vt 0.911147 0.388525 0.000000
# 246 texture coordinates

o ??????4
usemtl ???????_1
f 84/3/3 83/2/2 1/1/1
f 5/8/5 6/7/5 4/6/4 3/5/4
f 94/11/6 2/10/6 93/9/6
f 85/13/7 84/3/3 1/1/1
f 7/16/8 8/15/8 6/7/5 5/8/5
f 95/17/6 2/10/6 94/11/6
f 86/19/9 85/13/7 1/1/1
f 9/22/10 10/21/10 8/15/8 7/16/8
f 96/23/6 2/10/6 95/17/6
f 87/25/11 86/19/9 1/1/1
f 11/28/12 12/27/12 10/21/10 9/22/10
f 97/29/6 2/10/6 96/23/6
f 88/31/13 87/25/11 1/1/1
f 13/34/14 14/33/14 12/27/12 11/28/12
f 98/35/6 2/10/6 97/29/6
f 89/37/15 88/31/13 1/1/1
f 15/42/16 16/41/16 14/40/14 13/39/14
f 99/43/6 2/10/6 98/35/6
f 90/45/17 89/37/15 1/1/1
f 17/48/18 18/47/18 16/41/16 15/42/16
f 100/49/6 2/10/6 99/43/6
f 91/51/19 90/45/17 1/1/1
f 19/54/20 20/53/20 18/47/18 17/48/18
f 101/55/6 2/10/6 100/49/6
f 92/57/21 91/51/19 1/1/1
f 21/60/22 22/59/22 20/53/20 19/54/20
f 102/61/6 2/10/6 101/55/6
f 83/2/2 92/57/21 1/1/1
f 3/65/4 4/64/4 22/59/22 21/60/22
f 93/9/6 2/10/6 102/61/6
f 24/70/24 5/69/24 3/68/23 23/67/23
f 25/72/25 7/71/25 5/69/24 24/70/24
f 26/74/26 9/73/26 7/71/25 25/72/25
f 27/76/27 11/75/27 9/73/26 26/74/26
f 28/78/28 13/77/28 11/75/27 27/76/27
f 29/80/29 15/79/29 13/77/28 28/78/28
f 30/82/30 17/81/30 15/79/29 29/80/29
f 31/84/31 19/83/31 17/81/30 30/82/30
f 32/86/32 21/85/32 19/83/31 31/84/31
f 23/67/23 3/68/23 21/85/32 32/86/32
f 33/90/34 4/89/34 6/88/33 34/87/33
f 34/87/33 6/88/33 8/92/35 35/91/35
f 35/91/35 8/92/35 10/94/36 36/93/36
f 36/93/36 10/94/36 12/96/37 37/95/37
f 37/95/37 12/96/37 14/98/38 38/97/38
f 38/97/38 14/98/38 16/100/39 39/99/39
f 39/99/39 16/100/39 18/102/40 40/101/40
f 40/101/40 18/102/40 20/104/41 41/103/41
f 41/103/41 20/104/41 22/106/42 42/105/42
f 42/105/42 22/106/42 4/89/34 33/90/34
f 44/110/43 24/109/43 23/108/4 43/107/4
f 45/112/44 25/111/44 24/109/43 44/110/43
f 46/114/45 26/113/45 25/111/44 45/112/44
f 47/116/46 27/115/46 26/113/45 46/114/45
f 48/118/14 28/117/14 27/115/46 47/116/46
f 49/122/47 29/121/47 28/120/14 48/119/14
f 50/124/48 30/123/48 29/121/47 49/122/47
f 51/126/49 31/125/49 30/123/48 50/124/48
f 52/128/50 32/127/50 31/125/49 51/126/49
f 43/130/4 23/129/4 32/127/50 52/128/50
f 53/134/4 33/133/4 34/132/51 54/131/51
f 54/131/51 34/132/51 35/136/44 55/135/44
f 55/135/44 35/136/44 36/138/45 56/137/45
f 56/137/45 36/138/45 37/140/52 57/139/52
f 57/139/52 37/140/52 38/142/14 58/141/14
f 58/146/14 38/145/14 39/144/53 59/143/53
f 59/143/53 39/144/53 40/148/48 60/147/48
f 60/147/48 40/148/48 41/150/49 61/149/49
f 61/149/49 41/150/49 42/152/54 62/151/54
f 62/151/54 42/152/54 33/154/4 53/153/4
f 64/158/56 44/157/56 43/156/55 63/155/55
f 65/160/57 45/159/57 44/157/56 64/158/56
f 66/162/58 46/161/58 45/159/57 65/160/57
f 67/164/59 47/163/59 46/161/58 66/162/58
f 68/166/60 48/165/60 47/163/59 67/164/59
f 69/168/61 49/167/61 48/165/60 68/166/60
f 70/170/62 50/169/62 49/167/61 69/168/61
f 71/172/63 51/171/63 50/169/62 70/170/62
f 72/174/64 52/173/64 51/171/63 71/172/63
f 63/155/55 43/156/55 52/173/64 72/174/64
f 73/178/66 53/177/66 54/176/65 74/175/65
f 74/175/65 54/176/65 55/180/67 75/179/67
f 75/179/67 55/180/67 56/182/68 76/181/68
f 76/181/68 56/182/68 57/184/69 77/183/69
f 77/183/69 57/184/69 58/186/70 78/185/70
f 78/185/70 58/186/70 59/188/71 79/187/71
f 79/187/71 59/188/71 60/190/72 80/189/72
f 80/189/72 60/190/72 61/192/73 81/191/73
f 81/191/73 61/192/73 62/194/74 82/193/74
f 82/193/74 62/194/74 53/177/66 73/178/66
f 84/198/75 64/197/75 63/196/14 83/195/14
f 85/200/18 65/199/18 64/197/75 84/198/75
f 86/202/20 66/201/20 65/199/18 85/200/18
f 87/204/50 67/203/50 66/201/20 86/202/20
f 88/206/4 68/205/4 67/203/50 87/204/50
f 89/210/43 69/209/43 68/208/4 88/207/4
f 90/212/8 70/211/8 69/209/43 89/210/43
f 91/214/10 71/213/10 70/211/8 90/212/8
f 92/216/76 72/215/76 71/213/10 91/214/10
f 83/218/14 63/217/14 72/215/76 92/216/76
f 93/222/77 73/221/77 74/220/75 94/219/75
f 94/219/75 74/220/75 75/224/78 95/223/78
f 95/223/78 75/224/78 76/226/79 96/225/79
f 96/225/79 76/226/79 77/228/50 97/227/50
f 97/227/50 77/228/50 78/230/4 98/229/4
f 98/234/4 78/233/4 79/232/43 99/231/43
f 99/231/43 79/232/43 80/236/80 100/235/80
f 100/235/80 80/236/80 81/238/81 101/237/81
f 101/237/81 81/238/81 82/240/76 102/239/76
f 102/239/76 82/240/76 73/242/77 93/241/77
f 105/246/82 106/245/82 104/244/82 103/243/82

