# WaveFront *.obj file (generated by Cinema 4D)

mtllib ./топор.mtl

v -22.778364 -2.166034 6.735167
v -22.778364 2.166034 6.735167
v 57.491221 -2.166034 1.473450
v 57.491221 2.166034 1.473450
v 53.409810 -2.166034 -11.082514
v 53.409810 2.166034 -11.082514
v -22.778364 -2.166034 -1.998166
v -22.778364 2.166034 -1.998166
v -46.813620 -2.166034 0.951109
v -46.813620 2.166034 0.951109
v -51.235399 -2.166034 -10.415008
v -51.235399 2.166034 -10.415008
v -68.116295 -2.166034 1.679270
v -68.116295 2.166034 1.679270
v -66.089304 -2.166034 -9.907277
v -66.089304 2.166034 -9.907277
v -54.009673 -2.166034 -20.439425
v -54.009673 2.166034 -20.439425
v -64.099500 -2.166034 -20.094538
v -64.099500 2.166034 -20.094538
v -39.266447 -2.149894 9.665432
v -39.266447 2.149894 9.665432
v -73.674089 -2.149894 10.841542
v -73.674089 2.149894 10.841542
v -46.813620 3.976104 0.951109
v -51.235399 3.976104 -10.415008
v -68.116295 3.976104 1.679270
v -66.089304 3.976104 -9.907277
v -54.009673 3.976104 -20.439425
v -64.099500 3.976104 -20.094538
v -39.266447 3.946477 9.665432
v -73.674089 3.946477 10.841542
v -46.813620 -3.976104 0.951109
v -51.235399 -3.976104 -10.415008
v -68.116295 -3.976104 1.679270
v -66.089304 -3.976104 -9.907277
v -54.009673 -3.976104 -20.439425
v -64.099500 -3.976104 -20.094538
v -39.266447 -3.946477 9.665432
v -73.674089 -3.946477 10.841542
v -73.674089 0.000000 25.936665
v -39.266447 0.000000 24.760554
v -57.144065 2.166034 -20.332286
v -57.144065 -2.166034 -20.332286
v -57.144065 -3.976104 -20.332286
v -55.849746 -3.976104 -10.257282
v -53.431269 -3.976104 1.177312
v -47.991481 -3.946477 14.656685
v -47.842007 0.000000 28.026466
v -47.991481 3.946477 14.656685
v -53.431269 3.976104 1.177312
v -55.849746 3.976104 -10.257282
v -57.144065 3.976104 -20.332286
v -60.903501 -2.166034 -20.203782
v -60.903501 2.166034 -20.203782
v -60.903501 3.976104 -20.203782
v -61.384261 3.976104 -10.068103
v -61.368574 3.976104 1.448622
v -64.738966 3.946477 15.094900
v -64.694990 0.000000 28.464681
v -64.738966 -3.946477 15.094900
v -61.368574 -3.976104 1.448622
v -61.384261 -3.976104 -10.068103
v -60.903501 -3.976104 -20.203782
v -59.023783 2.166034 -20.268034
v -59.023783 -2.166034 -20.268034
v -59.023783 -3.976104 -20.268034
v -58.617004 -3.976104 -10.162692
v -57.399921 -3.976104 1.312967
v -56.365223 -3.946477 16.082349
v -56.268499 0.000000 29.619332
v -56.365223 3.946477 16.082349
v -57.399921 3.976104 1.312967
v -58.617004 3.976104 -10.162692
v -59.023783 3.976104 -20.268034
# 75 vertices

vn 0.065410 0.000000 0.997858
vn 0.951018 0.000000 -0.309136
vn -0.118397 0.000000 -0.992966
vn -0.983294 0.000000 -0.182022
vn -0.983294 0.000000 -0.182022
vn -0.985040 0.000000 -0.172326
vn 0.000000 1.000000 0.000000
vn 0.000000 -1.000000 0.000000
vn 0.283628 0.000000 -0.958935
vn -0.233969 0.000000 0.972244
vn -0.034162 0.000000 -0.999416
vn -0.034162 0.000000 -0.999416
vn -0.000124 0.999999 0.001169
vn -0.000203 0.999999 0.001311
vn -1.000000 0.000000 0.000000
vn -0.000203 -0.999999 0.001311
vn -0.000122 -0.999999 0.001182
vn 0.963772 0.000000 -0.266726
vn 0.954250 0.000000 -0.299010
vn -0.981454 0.000000 -0.191700
vn -0.000406 0.999996 0.002622
vn -0.000248 0.999997 0.002339
vn 0.755914 0.000000 -0.654671
vn 0.755914 0.000000 -0.654671
vn 0.000567 -0.999997 0.002544
vn 0.000284 -0.999999 0.001272
vn 0.000194 -0.999999 0.001143
vn 0.000388 -0.999997 0.002286
vn -0.854995 0.000000 -0.518636
vn 0.949077 0.000000 -0.315046
vn 0.931960 0.000000 -0.362562
vn -0.985040 0.000000 -0.172326
vn -0.854995 0.000000 -0.518636
vn 0.125029 -0.955988 0.265433
vn 0.087798 -0.957923 0.273267
vn -0.034161 0.000000 -0.999416
vn -0.034162 0.000000 -0.999416
vn -0.854995 0.000000 -0.518636
vn 1.000000 0.000000 0.000000
vn -0.099564 0.958575 0.266873
vn -0.067766 0.959247 0.274322
vn -0.034162 0.000000 -0.999416
vn 0.000032 -1.000000 0.001034
vn 0.000064 -0.999998 0.002068
vn 0.007293 -0.959575 0.281358
vn 0.087785 0.957923 0.273272
vn 0.125029 0.955988 0.265433
vn 0.000193 0.999999 0.001155
vn 0.000284 0.999999 0.001272
vn 0.000567 0.999997 0.002544
vn 0.000387 0.999997 0.002310
vn 0.000029 1.000000 0.001033
vn 0.000058 0.999998 0.002065
vn 0.007266 0.959575 0.281358
vn -0.067752 -0.959247 0.274327
vn -0.099564 -0.958575 0.266873
vn -0.000406 -0.999996 0.002622
vn -0.000244 -0.999997 0.002364
# 58 normals

vt 0.219803 0.149655 0.000000
vt 0.219803 0.187773 0.000000
vt 0.926110 0.187773 0.000000
vt 0.926110 0.149655 0.000000
vt 0.008313 0.008313 0.000000
vt 0.008313 0.046431 0.000000
vt 0.044226 0.046431 0.000000
vt 0.044226 0.008313 0.000000
vt 0.714619 0.046431 0.000000
vt 0.714619 0.008313 0.000000
vt 0.097952 0.078984 0.000000
vt 0.097952 0.117102 0.000000
vt 0.199904 0.117102 0.000000
vt 0.199904 0.078984 0.000000
vt 0.258711 0.661500 0.000000
vt 0.258711 0.738346 0.000000
vt 0.929105 0.818281 0.000000
vt 0.965018 0.707799 0.000000
vt 0.258711 0.914841 0.000000
vt 0.258711 0.991687 0.000000
vt 0.965018 0.945389 0.000000
vt 0.929105 0.834906 0.000000
vt 0.739491 0.078984 0.000000
vt 0.665430 0.078984 0.000000
vt 0.665430 0.117102 0.000000
vt 0.739491 0.117102 0.000000
vt 0.008313 0.812408 0.000000
vt 0.047221 0.712395 0.000000
vt 0.008313 0.187773 0.000000
vt 0.008313 0.149655 0.000000
vt 0.047221 0.940792 0.000000
vt 0.008313 0.840780 0.000000
vt 0.735864 0.590829 0.000000
vt 0.707741 0.590829 0.000000
vt 0.707741 0.628948 0.000000
vt 0.735864 0.628948 0.000000
vt 0.075053 0.552200 0.000000
vt 0.116453 0.553616 0.000000
vt 0.116591 0.452278 0.000000
vt 0.057217 0.450248 0.000000
vt 0.280525 0.063317 0.000000
vt 0.280525 0.079126 0.000000
vt 0.413350 0.098043 0.000000
vt 0.242328 0.117266 0.000000
vt 0.376601 0.399025 0.000000
vt 0.435976 0.396996 0.000000
vt 0.435837 0.295658 0.000000
vt 0.394437 0.297073 0.000000
vt 0.411946 0.207433 0.000000
vt 0.440068 0.206472 0.000000
vt 0.827698 0.078984 0.000000
vt 0.827698 0.117102 0.000000
vt 0.181343 0.644875 0.000000
vt 0.205755 0.556668 0.000000
vt 0.165152 0.555280 0.000000
vt 0.153763 0.643932 0.000000
vt 0.008313 0.117102 0.000000
vt 0.008313 0.078984 0.000000
vt 0.008313 0.369628 0.000000
vt 0.086934 0.332202 0.000000
vt 0.562800 0.116960 0.000000
vt 0.639479 0.117102 0.000000
vt 0.639479 0.078984 0.000000
vt 0.562800 0.079126 0.000000
vt 0.630456 0.469297 0.000000
vt 0.564047 0.392618 0.000000
vt 0.505817 0.394608 0.000000
vt 0.553683 0.513216 0.000000
vt 0.280525 0.116960 0.000000
vt 0.739491 0.133029 0.000000
vt 0.639479 0.133029 0.000000
vt 0.199904 0.133029 0.000000
vt 0.097952 0.133029 0.000000
vt 0.827698 0.133029 0.000000
vt 0.008313 0.133029 0.000000
vt 0.735864 0.644875 0.000000
vt 0.707741 0.644875 0.000000
vt 0.280525 0.132769 0.000000
vt 0.562800 0.132769 0.000000
vt 0.630456 0.602122 0.000000
vt 0.554998 0.630859 0.000000
vt 0.639479 0.063057 0.000000
vt 0.739491 0.063057 0.000000
vt 0.097952 0.063057 0.000000
vt 0.199904 0.063057 0.000000
vt 0.008313 0.063057 0.000000
vt 0.827698 0.063057 0.000000
vt 0.647081 0.574902 0.000000
vt 0.647081 0.590829 0.000000
vt 0.674662 0.590829 0.000000
vt 0.674662 0.574902 0.000000
vt 0.562800 0.063317 0.000000
vt 0.429975 0.098043 0.000000
vt 0.523087 0.090106 0.000000
vt 0.523087 0.089924 0.000000
vt 0.008313 0.236803 0.000000
vt 0.087321 0.214559 0.000000
vt 0.647081 0.628948 0.000000
vt 0.674662 0.628948 0.000000
vt 0.691202 0.590829 0.000000
vt 0.691202 0.574902 0.000000
vt 0.484537 0.293993 0.000000
vt 0.525139 0.292605 0.000000
vt 0.500728 0.204399 0.000000
vt 0.473148 0.205341 0.000000
vt 0.470896 0.395802 0.000000
vt 0.480001 0.525760 0.000000
vt 0.480852 0.644875 0.000000
vt 0.234299 0.336058 0.000000
vt 0.311072 0.379977 0.000000
vt 0.311072 0.247152 0.000000
vt 0.235614 0.218415 0.000000
vt 0.186433 0.454665 0.000000
vt 0.244663 0.456656 0.000000
vt 0.140803 0.554448 0.000000
vt 0.137223 0.643367 0.000000
vt 0.647081 0.644875 0.000000
vt 0.674662 0.644875 0.000000
vt 0.691202 0.628948 0.000000
vt 0.691202 0.644875 0.000000
vt 0.092561 0.641840 0.000000
vt 0.120683 0.642801 0.000000
vt 0.151512 0.453472 0.000000
vt 0.160617 0.323513 0.000000
vt 0.161468 0.204399 0.000000
vt 0.406319 0.517072 0.000000
vt 0.327697 0.479646 0.000000
vt 0.327697 0.612470 0.000000
vt 0.406706 0.634715 0.000000
vt 0.460187 0.294825 0.000000
vt 0.456608 0.205907 0.000000
vt 0.735864 0.574902 0.000000
vt 0.707741 0.574902 0.000000
# 133 texture coordinates

o ?????
usemtl ???????_1
f 3/4/1 4/3/1 2/2/1 1/1/1
f 5/8/2 6/7/2 4/6/2 3/5/2
f 7/10/3 8/9/3 6/7/3 5/8/3
f 13/14/6 14/13/6 16/12/5 15/11/4
f 4/18/7 6/17/7 8/16/7 2/15/7
f 5/22/8 3/21/8 1/20/8 7/19/8
f 12/26/9 8/25/9 7/24/9 11/23/9
f 10/28/7 2/15/7 8/16/7 12/27/7
f 9/30/10 1/1/10 2/2/10 10/29/10
f 11/32/8 7/19/8 1/20/8 9/31/8
f 20/36/11 55/35/12 54/34/12 19/33/11
f 27/40/14 58/39/13 57/38/7 28/37/7
f 41/43/15 23/42/15 40/41/15
f 36/48/8 63/47/8 62/46/17 35/45/16
f 64/50/8 63/47/8 36/48/8 38/49/8
f 18/52/18 12/26/19 11/23/19 17/51/18
f 53/56/7 52/55/7 26/54/7 29/53/7
f 19/58/20 15/11/4 16/12/5 20/57/20
f 59/60/22 58/39/13 27/40/14 32/59/21
f 21/64/24 9/63/24 10/62/23 22/61/23
f 48/68/28 47/67/27 33/66/26 39/65/25
f 24/69/29 14/13/29 13/14/29 23/42/29
f 25/71/31 10/62/31 12/26/19 26/70/30
f 28/73/4 16/12/5 14/13/6 27/72/32
f 26/70/30 12/26/19 18/52/18 29/74/18
f 30/75/20 20/57/20 16/12/5 28/73/4
f 56/77/12 55/35/12 20/36/11 30/76/11
f 27/72/33 14/13/29 24/69/29 32/78/33
f 31/79/23 22/61/23 10/62/23 25/71/23
f 49/81/35 48/68/35 39/65/34 42/80/34
f 34/83/30 11/23/19 9/63/31 33/82/31
f 35/85/32 13/14/6 15/11/4 36/84/4
f 36/84/4 15/11/4 19/58/20 38/86/20
f 37/87/18 17/51/18 11/23/19 34/83/30
f 45/91/37 44/90/37 17/89/36 37/88/36
f 33/82/24 9/63/24 21/64/24 39/92/24
f 40/41/38 23/42/29 13/14/29 35/85/38
f 39/92/39 21/64/39 42/93/39
f 21/64/39 22/61/39 42/93/39
f 24/69/15 23/42/15 41/43/15
f 42/93/39 22/61/39 31/79/39
f 32/78/15 24/69/15 41/43/15
f 60/97/41 59/60/41 32/59/40 41/96/40
f 43/99/37 18/98/36 17/89/36 44/90/37
f 45/91/37 67/101/42 66/100/42 44/90/37
f 45/105/8 37/104/8 34/103/8 46/102/8
f 46/102/8 34/103/8 33/66/26 47/67/27
f 48/68/28 70/107/44 69/106/43 47/67/27
f 49/81/35 71/108/45 70/107/45 48/68/35
f 49/112/46 42/111/47 31/110/47 50/109/46
f 50/109/51 31/110/50 25/114/49 51/113/48
f 51/113/48 25/114/49 26/54/7 52/55/7
f 53/56/7 75/116/7 74/115/7 52/55/7
f 53/118/37 29/117/36 18/98/36 43/99/37
f 55/35/12 65/119/42 66/100/42 54/34/12
f 56/77/12 75/120/42 65/119/42 55/35/12
f 56/122/7 30/121/7 28/37/7 57/38/7
f 58/39/13 73/123/52 74/115/7 57/38/7
f 59/60/22 72/124/53 73/123/52 58/39/13
f 60/97/41 71/125/54 72/124/54 59/60/41
f 60/129/55 41/128/56 40/127/56 61/126/55
f 61/126/58 40/127/57 35/45/16 62/46/17
f 63/47/8 68/130/8 69/106/43 62/46/17
f 64/50/8 67/131/8 68/130/8 63/47/8
f 64/133/12 38/132/11 19/33/11 54/34/12
f 65/119/42 43/99/37 44/90/37 66/100/42
f 67/101/42 64/133/12 54/34/12 66/100/42
f 67/131/8 45/105/8 46/102/8 68/130/8
f 68/130/8 46/102/8 47/67/27 69/106/43
f 70/107/44 61/126/58 62/46/17 69/106/43
f 71/108/45 60/129/55 61/126/55 70/107/45
f 71/125/54 49/112/46 50/109/46 72/124/54
f 72/124/53 50/109/51 51/113/48 73/123/52
f 73/123/52 51/113/48 52/55/7 74/115/7
f 75/116/7 56/122/7 57/38/7 74/115/7
f 75/120/42 53/118/37 43/99/37 65/119/42

